<svg width="142" height="44" viewBox="0 0 142 44" fill="none" xmlns="http://www.w3.org/2000/svg">
<path d="M29.2709 21.8503C29.2826 20.9322 29.5248 20.032 29.9748 19.2334C30.4249 18.4349 31.0682 17.764 31.8449 17.2831C31.3515 16.5734 30.7006 15.9894 29.9438 15.5773C29.187 15.1653 28.3452 14.9367 27.4854 14.9096C25.6511 14.7157 23.8729 16.0149 22.9382 16.0149C21.9854 16.0149 20.5463 14.9289 18.9966 14.961C17.9942 14.9936 17.0173 15.2871 16.1611 15.813C15.3049 16.3389 14.5985 17.0791 14.1108 17.9616C11.9983 21.6449 13.574 27.0581 15.5977 30.0353C16.6101 31.4932 17.7934 33.1217 19.3417 33.064C20.8568 33.0007 21.4226 32.091 23.2515 32.091C25.0634 32.091 25.5943 33.064 27.174 33.0272C28.7997 33.0007 29.824 31.5629 30.801 30.0912C31.5284 29.0524 32.0882 27.9043 32.4596 26.6894C31.515 26.2871 30.709 25.6137 30.142 24.7532C29.5749 23.8927 29.272 22.8831 29.2709 21.8503Z" fill="#242424"/>
<path d="M26.2871 12.9516C27.1735 11.88 27.6103 10.5026 27.5045 9.11194C26.1502 9.25518 24.8993 9.907 24.0008 10.9375C23.5616 11.4409 23.2252 12.0266 23.0108 12.6611C22.7964 13.2955 22.7083 13.9663 22.7516 14.635C23.4289 14.6421 24.0991 14.4942 24.7115 14.2026C25.3239 13.911 25.8626 13.4833 26.2871 12.9516Z" fill="#242424"/>
<path d="M51.6997 29.3732H46.5293L45.2877 33.0653H43.0977L47.995 19.4055H50.2703L55.1675 33.0653H52.9402L51.6997 29.3732ZM47.0648 27.6695H51.1632L49.1428 21.6775H49.0863L47.0648 27.6695Z" fill="#242424"/>
<path d="M65.7439 28.0862C65.7439 31.1811 64.0991 33.1694 61.6168 33.1694C60.988 33.2026 60.3627 33.0567 59.8124 32.7486C59.2621 32.4404 58.8091 31.9824 58.5053 31.427H58.4583V36.3599H56.4283V23.1062H58.3933V24.7626H58.4306C58.7484 24.2099 59.2091 23.7543 59.7635 23.4443C60.318 23.1342 60.9456 22.9814 61.5795 23.002C64.0894 23.002 65.7439 25 65.7439 28.0862ZM63.6574 28.0862C63.6574 26.0699 62.6227 24.7443 61.044 24.7443C59.493 24.7443 58.4498 26.0979 58.4498 28.0862C58.4498 30.0929 59.493 31.4367 61.044 31.4367C62.6227 31.4367 63.6574 30.1208 63.6574 28.0862Z" fill="#242424"/>
<path d="M76.6286 28.0862C76.6286 31.1811 74.9838 33.1694 72.5015 33.1694C71.8727 33.2026 71.2474 33.0567 70.6971 32.7485C70.1468 32.4404 69.6938 31.9824 69.39 31.427H69.343V36.3599H67.313V23.1062H69.2779V24.7626H69.3152C69.6331 24.2099 70.0937 23.7543 70.6482 23.4442C71.2027 23.1342 71.8303 22.9814 72.4642 23.002C74.9742 23.002 76.6286 25 76.6286 28.0862ZM74.5421 28.0862C74.5421 26.0699 73.5074 24.7443 71.9287 24.7443C70.3777 24.7443 69.3345 26.0979 69.3345 28.0862C69.3345 30.0929 70.3777 31.4367 71.9287 31.4367C73.5074 31.4367 74.5422 30.1208 74.5422 28.0862H74.5421Z" fill="#242424"/>
<path d="M83.8225 29.2593C83.9729 30.6139 85.2796 31.5033 87.0653 31.5033C88.7763 31.5033 90.0072 30.6139 90.0072 29.3925C90.0072 28.3322 89.2648 27.6974 87.5069 27.2623L85.749 26.8358C83.2582 26.23 82.1019 25.0569 82.1019 23.1534C82.1019 20.7966 84.1414 19.1777 87.0375 19.1777C89.9037 19.1777 91.8686 20.7966 91.9348 23.1534H89.8856C89.7629 21.7902 88.644 20.9674 87.0087 20.9674C85.3734 20.9674 84.2545 21.7999 84.2545 23.0116C84.2545 23.9774 84.9692 24.5456 86.7175 24.9806L88.2119 25.3502C90.995 26.013 92.1513 27.1388 92.1513 29.1368C92.1513 31.6923 90.1299 33.2929 86.9148 33.2929C83.9067 33.2929 81.8757 31.7299 81.7445 29.2592L83.8225 29.2593Z" fill="#242424"/>
<path d="M96.5323 20.7493V23.1061H98.4129V24.725H96.5323V30.2153C96.5323 31.0682 96.9088 31.4657 97.7355 31.4657C97.9588 31.4618 98.1817 31.446 98.4033 31.4184V33.0276C98.0316 33.0975 97.6538 33.1292 97.2758 33.1221C95.2736 33.1221 94.4927 32.3648 94.4927 30.4333V24.725H93.0548V23.1061H94.4927V20.7493H96.5323Z" fill="#242424"/>
<path d="M99.5021 28.0862C99.5021 24.9527 101.335 22.9836 104.192 22.9836C107.06 22.9836 108.884 24.9526 108.884 28.0862C108.884 31.2283 107.069 33.1887 104.192 33.1887C101.316 33.1887 99.5021 31.2283 99.5021 28.0862ZM106.815 28.0862C106.815 25.9367 105.837 24.668 104.192 24.668C102.548 24.668 101.57 25.9463 101.57 28.0862C101.57 30.2443 102.548 31.5033 104.192 31.5033C105.837 31.5033 106.815 30.2443 106.815 28.0862H106.815Z" fill="#242424"/>
<path d="M110.557 23.1062H112.493V24.8013H112.54C112.671 24.2719 112.979 23.804 113.412 23.4763C113.846 23.1487 114.378 22.9812 114.919 23.002C115.153 23.0012 115.386 23.0267 115.615 23.0783V24.9904C115.319 24.8995 115.011 24.8578 114.702 24.8668C114.408 24.8548 114.114 24.9071 113.841 25.0203C113.568 25.1335 113.322 25.3048 113.121 25.5225C112.92 25.7402 112.769 25.9991 112.676 26.2814C112.584 26.5637 112.554 26.8628 112.587 27.1581V33.0653H110.557L110.557 23.1062Z" fill="#242424"/>
<path d="M124.974 30.1401C124.701 31.948 122.952 33.1887 120.715 33.1887C117.839 33.1887 116.053 31.2476 116.053 28.1334C116.053 25.0096 117.848 22.9836 120.63 22.9836C123.366 22.9836 125.087 24.8764 125.087 27.896V28.5964H118.102V28.72C118.07 29.0865 118.115 29.4557 118.236 29.8031C118.356 30.1506 118.548 30.4682 118.8 30.735C119.052 31.0018 119.357 31.2117 119.695 31.3506C120.033 31.4895 120.397 31.5544 120.762 31.5409C121.242 31.5861 121.724 31.4742 122.135 31.2219C122.546 30.9695 122.866 30.5901 123.046 30.1401L124.974 30.1401ZM118.112 27.1677H123.056C123.074 26.8382 123.024 26.5084 122.91 26.199C122.796 25.8897 122.619 25.6075 122.391 25.3702C122.164 25.1328 121.89 24.9455 121.587 24.8198C121.283 24.6942 120.958 24.633 120.63 24.6401C120.3 24.6381 119.972 24.7021 119.666 24.8283C119.36 24.9545 119.082 25.1405 118.848 25.3755C118.614 25.6105 118.428 25.8898 118.302 26.1974C118.175 26.5051 118.111 26.8348 118.112 27.1677V27.1677Z" fill="#242424"/>
<path d="M46.8102 9.12354C47.2358 9.09278 47.6629 9.15753 48.0606 9.3131C48.4583 9.46868 48.8168 9.71121 49.1102 10.0232C49.4035 10.3352 49.6245 10.7089 49.7571 11.1173C49.8897 11.5256 49.9307 11.9586 49.877 12.3849C49.877 14.4817 48.7516 15.6871 46.8102 15.6871H44.456V9.12354H46.8102ZM45.4683 14.7588H46.6972C47.0013 14.7771 47.3056 14.7269 47.588 14.6119C47.8704 14.4968 48.1238 14.3197 48.3297 14.0936C48.5356 13.8675 48.6888 13.598 48.7782 13.3047C48.8676 13.0114 48.891 12.7018 48.8466 12.3982C48.8878 12.0959 48.862 11.7882 48.7712 11.497C48.6805 11.2059 48.5268 10.9386 48.3214 10.7143C48.116 10.49 47.8638 10.3142 47.583 10.1995C47.3022 10.0849 46.9997 10.0342 46.6972 10.0511H45.4683V14.7588Z" fill="#242424"/>
<path d="M51.0206 13.2082C50.9897 12.8827 51.0267 12.5543 51.1292 12.244C51.2317 11.9337 51.3974 11.6484 51.6158 11.4065C51.8342 11.1645 52.1004 10.9711 52.3974 10.8388C52.6943 10.7065 53.0155 10.6382 53.3402 10.6382C53.6649 10.6382 53.986 10.7065 54.2829 10.8388C54.5799 10.9711 54.8461 11.1645 55.0645 11.4065C55.2829 11.6484 55.4487 11.9337 55.5512 12.244C55.6537 12.5543 55.6906 12.8827 55.6597 13.2082C55.6912 13.534 55.6547 13.8629 55.5525 14.1737C55.4502 14.4845 55.2846 14.7703 55.0661 15.0127C54.8477 15.2552 54.5812 15.4489 54.284 15.5815C53.9868 15.7141 53.6653 15.7826 53.3402 15.7826C53.0151 15.7826 52.6936 15.7141 52.3963 15.5815C52.0991 15.4489 51.8327 15.2552 51.6142 15.0127C51.3958 14.7703 51.2301 14.4845 51.1279 14.1737C51.0256 13.8629 50.9891 13.534 51.0206 13.2082ZM54.6613 13.2082C54.6613 12.1345 54.1823 11.5066 53.3418 11.5066C52.498 11.5066 52.0234 12.1345 52.0234 13.2082C52.0234 14.2905 52.498 14.9135 53.3418 14.9135C54.1823 14.9135 54.6613 14.2862 54.6613 13.2082H54.6613Z" fill="#242424"/>
<path d="M61.8263 15.6869H60.8194L59.8028 12.0388H59.726L58.7137 15.6869H57.7163L56.3605 10.7336H57.3451L58.2262 14.5132H58.2987L59.31 10.7336H60.2412L61.2525 14.5132H61.3293L62.2061 10.7336H63.1768L61.8263 15.6869Z" fill="#242424"/>
<path d="M64.3171 10.7337H65.2515V11.5205H65.3241C65.4471 11.2379 65.6547 11.001 65.9178 10.8428C66.1809 10.6846 66.4864 10.6131 66.7918 10.6381C67.0312 10.6199 67.2715 10.6563 67.495 10.7444C67.7185 10.8325 67.9194 10.9701 68.0829 11.147C68.2464 11.324 68.3683 11.5357 68.4395 11.7665C68.5107 11.9973 68.5294 12.2412 68.4943 12.4803V15.6868H67.5236V12.7258C67.5236 11.9298 67.1801 11.534 66.4622 11.534C66.2997 11.5263 66.1375 11.5542 65.9867 11.6156C65.8359 11.677 65.7001 11.7705 65.5886 11.8898C65.477 12.009 65.3924 12.1511 65.3405 12.3063C65.2885 12.4616 65.2706 12.6263 65.2878 12.7892V15.6869H64.3171L64.3171 10.7337Z" fill="#242424"/>
<path d="M70.041 8.80005H71.0117V15.6869H70.041V8.80005Z" fill="#242424"/>
<path d="M72.3609 13.208C72.33 12.8825 72.367 12.5541 72.4695 12.2438C72.5721 11.9335 72.7379 11.6482 72.9563 11.4062C73.1747 11.1642 73.4409 10.9709 73.7379 10.8386C74.0349 10.7063 74.356 10.6379 74.6807 10.6379C75.0055 10.6379 75.3266 10.7063 75.6236 10.8386C75.9205 10.9709 76.1868 11.1642 76.4052 11.4062C76.6236 11.6482 76.7894 11.9335 76.8919 12.2438C76.9945 12.5541 77.0315 12.8825 77.0006 13.208C77.032 13.5339 76.9955 13.8628 76.8932 14.1736C76.7909 14.4843 76.6252 14.7701 76.4068 15.0126C76.1883 15.255 75.9219 15.4488 75.6246 15.5814C75.3274 15.7139 75.0058 15.7824 74.6807 15.7824C74.3556 15.7824 74.0341 15.7139 73.7369 15.5814C73.4396 15.4488 73.1732 15.255 72.9547 15.0126C72.7362 14.7701 72.5706 14.4843 72.4683 14.1736C72.366 13.8628 72.3295 13.5339 72.3609 13.208ZM76.0016 13.208C76.0016 12.1344 75.5226 11.5065 74.6821 11.5065C73.8383 11.5065 73.3637 12.1344 73.3637 13.2081C73.3637 14.2903 73.8383 14.9134 74.6821 14.9134C75.5226 14.9134 76.0016 14.286 76.0016 13.208H76.0016Z" fill="#242424"/>
<path d="M78.0225 14.2861C78.0225 13.3945 78.6818 12.8805 79.8519 12.8074L81.1842 12.7301V12.3026C81.1842 11.7794 80.8408 11.484 80.1773 11.484C79.6354 11.484 79.2599 11.6843 79.1522 12.0345H78.2124C78.3116 11.1838 79.1063 10.6381 80.2221 10.6381C81.4552 10.6381 82.1507 11.2563 82.1507 12.3026V15.6869H81.2163V14.9908H81.1394C80.9836 15.2405 80.7647 15.444 80.5051 15.5807C80.2455 15.7173 79.9546 15.7821 79.6621 15.7685C79.4556 15.7901 79.2469 15.7679 79.0494 15.7034C78.852 15.6388 78.6702 15.5333 78.5157 15.3936C78.3612 15.254 78.2375 15.0832 78.1526 14.8925C78.0676 14.7017 78.0233 14.4952 78.0225 14.2861ZM81.1842 13.8629V13.4487L79.9831 13.5261C79.3058 13.5717 78.9986 13.8038 78.9986 14.2404C78.9986 14.6862 79.3826 14.9457 79.9106 14.9457C80.0654 14.9614 80.2216 14.9457 80.3702 14.8994C80.5188 14.8531 80.6566 14.7772 80.7754 14.6762C80.8942 14.5751 80.9916 14.4511 81.0619 14.3113C81.1321 14.1716 81.1737 14.0191 81.1842 13.8629Z" fill="#242424"/>
<path d="M83.4265 13.2081C83.4265 11.643 84.2255 10.6515 85.4682 10.6515C85.7756 10.6372 86.0807 10.7114 86.3478 10.8652C86.6148 11.0191 86.8329 11.2464 86.9765 11.5205H87.0491V8.80005H88.0197V15.6869H87.0896V14.9043H87.0128C86.8581 15.1765 86.6324 15.401 86.3602 15.5533C86.0879 15.7056 85.7794 15.78 85.4682 15.7685C84.2169 15.7685 83.4265 14.777 83.4265 13.2081ZM84.4292 13.2081C84.4292 14.2587 84.921 14.8909 85.7434 14.8909C86.5616 14.8909 87.0672 14.2496 87.0672 13.2124C87.0672 12.1801 86.5563 11.5297 85.7434 11.5297C84.9263 11.5297 84.4292 12.1661 84.4292 13.2081H84.4292Z" fill="#242424"/>
<path d="M92.0359 13.2082C92.005 12.8827 92.0419 12.5543 92.1444 12.244C92.2469 11.9337 92.4127 11.6484 92.6311 11.4065C92.8495 11.1645 93.1157 10.9711 93.4126 10.8388C93.7096 10.7065 94.0307 10.6382 94.3554 10.6382C94.6801 10.6382 95.0012 10.7065 95.2982 10.8388C95.5951 10.9711 95.8613 11.1645 96.0797 11.4065C96.2981 11.6484 96.4639 11.9337 96.5664 12.244C96.6689 12.5543 96.7059 12.8827 96.675 13.2082C96.7065 13.534 96.6699 13.8629 96.5677 14.1737C96.4655 14.4845 96.2998 14.7703 96.0813 15.0127C95.8629 15.2552 95.5965 15.4489 95.2992 15.5815C95.002 15.7141 94.6805 15.7826 94.3554 15.7826C94.0303 15.7826 93.7088 15.7141 93.4116 15.5815C93.1143 15.4489 92.8479 15.2552 92.6295 15.0127C92.411 14.7703 92.2454 14.4845 92.1431 14.1737C92.0409 13.8629 92.0044 13.534 92.0359 13.2082ZM95.6765 13.2082C95.6765 12.1345 95.1976 11.5066 94.357 11.5066C93.5133 11.5066 93.0386 12.1345 93.0386 13.2082C93.0386 14.2905 93.5133 14.9135 94.357 14.9135C95.1976 14.9135 95.6765 14.2862 95.6765 13.2082Z" fill="#242424"/>
<path d="M97.9775 10.7337H98.912V11.5205H98.9845C99.1076 11.2379 99.3151 11.001 99.5782 10.8428C99.8413 10.6846 100.147 10.6131 100.452 10.6381C100.692 10.6199 100.932 10.6563 101.155 10.7444C101.379 10.8325 101.58 10.9701 101.743 11.147C101.907 11.324 102.029 11.5357 102.1 11.7665C102.171 11.9973 102.19 12.2412 102.155 12.4803V15.6868H101.184V12.7258C101.184 11.9298 100.841 11.534 100.123 11.534C99.9602 11.5263 99.798 11.5542 99.6472 11.6156C99.4964 11.677 99.3606 11.7705 99.249 11.8898C99.1375 12.009 99.0528 12.1511 99.0009 12.3063C98.949 12.4616 98.931 12.6263 98.9482 12.7892V15.6869H97.9775V10.7337Z" fill="#242424"/>
<path d="M107.64 9.50049V10.7562H108.705V11.5796H107.64V14.1266C107.64 14.6455 107.852 14.8727 108.335 14.8727C108.459 14.8723 108.583 14.8647 108.705 14.8501V15.6643C108.531 15.6958 108.355 15.7125 108.177 15.7143C107.098 15.7143 106.668 15.3319 106.668 14.3769V11.5796H105.887V10.7562H106.668V9.50049H107.64Z" fill="#242424"/>
<path d="M110.031 8.80005H110.994V11.5296H111.07C111.199 11.2444 111.413 11.0061 111.681 10.8474C111.949 10.6886 112.26 10.617 112.57 10.6423C112.808 10.6293 113.046 10.6693 113.267 10.7596C113.488 10.8498 113.687 10.9881 113.848 11.1644C114.01 11.3408 114.131 11.551 114.203 11.7799C114.275 12.0089 114.296 12.2509 114.264 12.4889V15.6869H113.292V12.7301C113.292 11.9389 112.926 11.5382 112.241 11.5382C112.074 11.5244 111.906 11.5475 111.749 11.6059C111.592 11.6643 111.449 11.7565 111.331 11.8761C111.213 11.9957 111.123 12.1398 111.066 12.2984C111.009 12.4569 110.987 12.6261 111.002 12.794V15.6869H110.031L110.031 8.80005Z" fill="#242424"/>
<path d="M119.924 14.3494C119.792 14.8021 119.506 15.1937 119.117 15.4557C118.727 15.7176 118.258 15.8333 117.793 15.7824C117.469 15.7911 117.147 15.7286 116.849 15.5993C116.551 15.47 116.285 15.277 116.069 15.0338C115.853 14.7905 115.692 14.5028 115.597 14.1906C115.502 13.8784 115.476 13.5492 115.521 13.2258C115.477 12.9014 115.504 12.5715 115.598 12.2584C115.693 11.9452 115.853 11.6562 116.068 11.4108C116.283 11.1654 116.548 10.9694 116.845 10.8361C117.142 10.7028 117.463 10.6352 117.788 10.638C119.157 10.638 119.983 11.5796 119.983 13.135V13.4761H116.509V13.5309C116.494 13.7127 116.517 13.8956 116.576 14.0681C116.635 14.2405 116.729 14.3986 116.853 14.5322C116.976 14.6658 117.126 14.7719 117.292 14.8439C117.459 14.9158 117.638 14.9519 117.819 14.9499C118.051 14.978 118.287 14.9359 118.495 14.8289C118.703 14.722 118.876 14.5551 118.989 14.3494L119.924 14.3494ZM116.509 12.7532H118.994C119.006 12.5869 118.984 12.4199 118.928 12.2629C118.872 12.106 118.785 11.9624 118.671 11.8416C118.556 11.7207 118.419 11.6253 118.266 11.5613C118.113 11.4973 117.948 11.4662 117.783 11.47C117.615 11.4679 117.449 11.4996 117.293 11.5634C117.137 11.6271 116.996 11.7215 116.878 11.8411C116.759 11.9607 116.665 12.103 116.602 12.2597C116.539 12.4163 116.507 12.5841 116.509 12.7532H116.509Z" fill="#242424"/>
</svg>
