<svg width="61" height="75" viewBox="0 0 61 75" fill="none" xmlns="http://www.w3.org/2000/svg">
<path fill-rule="evenodd" clip-rule="evenodd" d="M40.6128 11.412L40.6073 11.4186L40.6018 11.4254C39.3777 12.9478 37.824 14.1726 36.0579 15.0076C34.5806 15.706 32.987 16.1164 31.362 16.2203C31.3624 14.6093 31.627 13.007 32.1474 11.4778C32.7712 9.64476 33.7501 7.95263 35.0283 6.49813L35.0285 6.49782C37.4189 3.77546 40.6631 1.96384 44.2118 1.34731C44.2405 5.01056 42.9724 8.57969 40.6128 11.412ZM31.2007 11.1556C30.5346 13.1131 30.2609 15.1825 30.3952 17.2458C32.5 17.2675 34.5823 16.8113 36.4853 15.9117C38.3882 15.012 40.0622 13.6924 41.3812 12.0521C43.9212 9.00317 45.2728 5.15207 45.2102 1.20644C45.2049 0.873389 45.1895 0.539663 45.164 0.205688C44.8309 0.240666 44.4999 0.285473 44.1712 0.33991C40.3474 0.973274 36.8478 2.91027 34.2771 5.83802C32.9122 7.39124 31.8668 9.1982 31.2007 11.1556ZM44.9999 19.0875L45.0363 19.0914L45.073 19.0925C47.5894 19.1712 50.0529 19.8356 52.2677 21.0328C54.1797 22.0664 55.8609 23.4725 57.2139 25.1645C55.0641 26.6754 53.2716 28.6464 51.97 30.9394C50.4883 33.5498 49.691 36.4926 49.6523 39.4939L50.6523 39.5068L49.6523 39.5079C49.6559 42.8906 50.6553 46.1973 52.5258 49.0158C54.227 51.5792 56.5803 53.6356 59.3363 54.9781C58.2192 58.3167 56.6205 61.476 54.5896 64.3555L54.5824 64.3657L54.5755 64.3761C53.0513 66.6559 51.5554 68.8054 49.8453 70.4021C48.1556 71.9797 46.3229 72.9547 44.1204 72.9904L44.1135 72.9906C41.9283 73.041 40.4773 72.4232 38.7787 71.7L38.7047 71.6685C36.9464 70.92 34.9728 70.1019 31.9484 70.1019C28.9119 70.1019 26.9077 70.8614 25.123 71.6068C25.0005 71.6579 24.8797 71.7087 24.7599 71.759C23.1516 72.4348 21.7558 73.0213 19.7599 73.1044C17.7392 73.1783 15.8671 72.1682 14.0426 70.4559C12.2168 68.7425 10.5674 66.4484 8.98797 64.1903C5.92515 59.7146 3.18523 53.3781 2.02095 46.7775C0.854977 40.1672 1.28881 33.4155 4.4116 28.0094L4.41559 28.0025L4.41947 27.9955C5.85082 25.4237 7.92404 23.2664 10.4371 21.7339C12.9485 20.2025 15.8136 19.3471 18.7536 19.2511C20.9403 19.2075 23.0949 19.9471 25.1793 20.7703C25.4437 20.8747 25.7093 20.9814 25.9742 21.0877L25.9748 21.088C26.7256 21.3896 27.4704 21.6887 28.1648 21.927C29.104 22.2494 30.0654 22.5032 30.9749 22.5032C31.8911 22.5032 32.9255 22.195 33.9458 21.8268C34.5071 21.6243 35.1446 21.3717 35.7998 21.112C36.3132 20.9085 36.8375 20.7007 37.3445 20.5093C39.7793 19.5903 42.3977 18.8144 44.9999 19.0875ZM53.359 48.4629C51.5971 45.8079 50.6557 42.6931 50.6523 39.5068C50.6888 36.6742 51.4412 33.8968 52.8397 31.4331C54.0732 29.2599 55.774 27.3931 57.8143 25.9648C58.0871 25.7738 58.366 25.5907 58.6507 25.4157C58.4584 25.1411 58.2585 24.8727 58.0512 24.6106C56.605 22.7826 54.7999 21.2649 52.7432 20.1531C50.3917 18.882 47.7761 18.1766 45.1042 18.093C41.6179 17.7271 38.1967 19.0848 35.4007 20.1944C33.6257 20.8988 32.1027 21.5032 30.9749 21.5032C29.6919 21.5032 28.1252 20.8739 26.3696 20.1688C24.0741 19.2469 21.4559 18.1953 18.7273 18.2515C15.6126 18.3521 12.5771 19.2577 9.9165 20.8801C7.25593 22.5026 5.06104 24.7864 3.54568 27.5092C-3.01852 38.873 1.87778 55.5739 8.16574 64.7595C11.3117 69.2575 14.9885 74.2818 19.7995 74.1036C21.9819 74.0131 23.5305 73.3614 25.13 72.6883C26.9809 71.9095 28.9 71.1019 31.9484 71.1019C34.8227 71.1019 36.6596 71.8843 38.4223 72.6351C40.1123 73.3549 41.7341 74.0458 44.1366 73.9903C49.1883 73.9083 52.3712 69.4724 55.4068 64.9319C57.6672 61.7269 59.4065 58.1848 60.5605 54.4366C57.6256 53.1954 55.121 51.1178 53.359 48.4629Z" fill="white"/>
</svg>
