<svg width="278" height="36" viewBox="0 0 278 36" fill="none" xmlns="http://www.w3.org/2000/svg">
<path d="M67.1883 8.14941V10.4156H56.3268V16.8392H66.3497V19.1054H56.3268V25.7001H67.3576V27.9663H53.9722V8.15756H67.1883V8.14941Z" fill="white"/>
<path d="M98.6762 8.14941V20.7113C98.6762 26.3686 94.838 28.2924 90.4998 28.2924C86.1294 28.2924 82.2993 26.3686 82.2993 20.7113V8.14941H84.6538V20.6053C84.6538 24.6241 87.1212 26.0425 90.5079 26.0425C93.8704 26.0425 96.3297 24.6241 96.3297 20.6053V8.14941H98.6762Z" fill="white"/>
<path d="M121.496 8.14941C126.028 8.14941 129.809 9.59227 129.809 14.5485C129.809 19.5048 126.028 20.9477 121.496 20.9477H117.158V27.9663H114.803V8.15756H121.496V8.14941ZM121.601 10.4156H117.15V18.6815H121.601C124.794 18.6815 127.423 17.8908 127.423 14.5485C127.431 11.1819 124.826 10.4156 121.601 10.4156Z" fill="white"/>
<path d="M160.821 8.14941V27.9582H158.475V19.1543H146.856V27.9582H144.501V8.14941H146.856V16.8962H158.475V8.14941H160.821Z" fill="white"/>
<path d="M186.1 7.80713C192.962 7.80713 196.349 12.9264 196.349 18.0539C196.349 23.1732 192.962 28.3006 186.1 28.3006C179.238 28.3006 175.852 23.1813 175.852 18.0539C175.86 12.9346 179.247 7.80713 186.1 7.80713ZM186.1 10.0733C180.779 10.0733 178.231 13.978 178.231 18.0539C178.231 22.1297 180.779 26.0344 186.1 26.0344C191.422 26.0344 193.97 22.1297 193.97 18.0539C193.97 13.978 191.422 10.0733 186.1 10.0733Z" fill="white"/>
<path d="M211.38 27.9582V8.14941H219.048C222.572 8.14941 226.386 9.62488 226.386 14.1491C226.386 17.8011 223.918 19.4396 221.152 19.9531L227.789 27.9582H224.846L218.435 20.1488H213.734V27.9582H211.38ZM213.734 17.8826H219.169C221.523 17.8826 224.015 17.0919 224.015 14.1491C224.015 11.1737 221.523 10.4156 219.169 10.4156H213.734V17.8826Z" fill="white"/>
<path d="M244.383 8.14941V27.9582H242.029V8.14941H244.383Z" fill="white"/>
<path d="M258.349 27.9582L266.889 8.14941H269.493L278 27.9582H275.484L273.468 23.1731H262.913L260.897 27.9582H258.349ZM263.841 20.9721H272.549L268.493 11.3531C268.38 11.1003 268.3 10.8721 268.187 10.5868C268.074 10.8721 267.993 11.0922 267.88 11.3531L263.841 20.9721Z" fill="white"/>
<path d="M37.6791 6.63562L37.6543 5.91354L36.9333 5.93844C35.4956 5.99239 34.0744 6.17084 32.7029 6.46963C33.196 4.52749 33.4197 2.59781 33.3617 0.717925L33.3369 0L32.6118 0.0248991C28.0913 0.186744 24.3706 1.72219 21.8473 4.46525C20.4468 5.98824 19.4441 7.84738 18.8433 10.0178C18.2425 7.84323 17.2398 5.98824 15.8394 4.46525C13.316 1.72219 9.59529 0.186744 5.07486 0.0248991L4.35391 0L4.33319 0.722075C4.27519 2.60196 4.49893 4.53164 4.99199 6.47378C3.61639 6.17499 2.19935 5.99654 0.761599 5.94259L0.0406493 5.9177L0.01579 6.63977C-0.270103 14.6822 3.37193 18.7408 7.23356 23.04C9.07322 25.09 10.9792 27.2148 12.6282 29.908C13.7801 31.7879 14.2939 33.5433 14.1074 34.9791L13.9748 36L14.9775 35.7759C16.6432 35.4024 17.9401 34.5061 18.8475 33.1159C19.7549 34.5102 21.0517 35.4024 22.7174 35.7759L23.7201 36L23.5875 34.9791C23.401 33.5433 23.9148 31.7879 25.0667 29.908C26.7157 27.2148 28.6217 25.09 30.4614 23.04C34.323 18.7366 37.965 14.6739 37.6791 6.63562ZM22.908 5.44461C24.7601 3.43193 27.1052 2.39862 29.3095 1.89648C29.6037 3.81372 29.3261 5.78905 28.7211 7.72288C24.2007 9.60692 21.2092 12.5326 19.6388 14.4C19.7922 10.6485 20.8901 7.63988 22.908 5.44461ZM18.2301 17.0601L18.8475 18.0643L19.4648 17.0601L19.5435 16.9356C19.5767 16.8816 22.3652 12.4413 28.0209 9.63597C27.1508 11.7026 25.9824 13.6779 24.8264 15.4292C23.1069 18.0394 18.8516 23.0359 18.8475 27.7003C18.8475 23.0359 14.5922 18.0394 12.8686 15.4292C11.7126 13.6779 10.5441 11.7026 9.67401 9.63597C15.3297 12.4413 18.1182 16.8816 18.1514 16.9356L18.2301 17.0601ZM8.38128 1.89648C10.5856 2.39862 12.9349 3.43193 14.7828 5.44461C16.8006 7.63988 17.8986 10.6485 18.0561 14.4042C16.4816 12.5326 13.4942 9.61107 8.96964 7.72703C8.36056 5.78905 8.0871 3.81372 8.38128 1.89648ZM17.7122 32.2153C17.1735 33.0827 16.4733 33.701 15.5783 34.0745V34.0662C17.244 31.6925 14.9237 27.941 12.4708 24.7082C10.3494 21.9112 8.06638 19.2387 6.26815 16.2052C4.80554 13.736 4.05973 11.2627 5.46019 8.06317C7.12583 13.1011 10.3038 17.475 13.1172 21.3386C16.465 25.9366 19.1085 29.5719 17.7122 32.2153ZM31.4268 16.2052C29.6285 19.2387 27.3455 21.9112 25.2241 24.7082C22.7671 27.941 20.4468 31.6966 22.1166 34.0662V34.0745C21.2216 33.6968 20.5214 33.0827 19.9827 32.2153C18.5864 29.576 21.2299 25.9408 24.5778 21.3386C27.3911 17.4709 30.5732 13.1011 32.2347 8.06317C33.6352 11.2627 32.8894 13.736 31.4268 16.2052Z" fill="white"/>
</svg>
