<svg width="55" height="60" viewBox="0 0 55 60" fill="none" xmlns="http://www.w3.org/2000/svg">
<path fill-rule="evenodd" clip-rule="evenodd" d="M12.1539 57.5782L42.3918 40.2442L32.1277 30.4075L4.06533 57.153C6.30446 58.7655 9.41808 59.1465 12.1539 57.5782ZM3.34399 56.5625C1.93041 55.2506 1.01103 53.3786 1.01103 51.1905L1.01103 8.40411C1.01103 6.15855 1.97928 4.24603 3.45627 2.92996L31.4591 29.7667L3.34399 56.5625ZM32.1295 29.1278L4.19118 2.35287C6.42017 0.815621 9.46898 0.477281 12.1539 2.01642L42.3895 19.3492L32.1295 29.1278ZM32.7981 29.7686L43.2284 39.7646L49.4726 36.185C54.425 33.346 54.425 26.2486 49.4726 23.4096L43.2269 19.8292L32.7981 29.7686ZM43.4841 18.912L49.9369 22.6111C55.5084 25.805 55.5083 33.7896 49.9369 36.9835L43.4812 40.6843L43.1772 40.9969L43.0868 40.9103L12.6182 58.3767C7.04674 61.5705 0.0824582 57.5782 0.0824585 51.1905L0.0824604 8.40411C0.0824606 2.01641 7.04675 -1.9759 12.6182 1.21796L43.0871 18.6844L43.1792 18.5966L43.4841 18.912Z" fill="white"/>
</svg>
