<svg width="142" height="44" viewBox="0 0 142 44" fill="none" xmlns="http://www.w3.org/2000/svg">
<path d="M48.6499 10.2434C48.6499 11.1266 48.4307 11.8994 47.8825 12.4515C47.2247 13.1139 46.4573 13.4451 45.4706 13.4451C44.4839 13.4451 43.7164 13.1139 43.0586 12.4515C42.4008 11.789 42.0719 11.0162 42.0719 10.0225C42.0719 9.0289 42.4008 8.25606 43.0586 7.59362C43.7164 6.93119 44.4839 6.59998 45.4706 6.59998C45.9091 6.59998 46.3476 6.71038 46.7862 6.93119C47.2247 7.152 47.5536 7.37281 47.7729 7.70403L47.2247 8.25606C46.7862 7.70403 46.238 7.48322 45.4706 7.48322C44.8128 7.48322 44.155 7.70403 43.7164 8.25606C43.1683 8.69768 42.949 9.36011 42.949 10.133C42.949 10.9058 43.1683 11.5682 43.7164 12.0098C44.2646 12.4515 44.8128 12.7827 45.4706 12.7827C46.238 12.7827 46.7862 12.5619 47.3343 12.0098C47.6632 11.6786 47.8825 11.237 47.8825 10.685H45.4706V9.80173H48.6499C48.6499 9.91214 48.6499 10.1329 48.6499 10.2434Z" fill="#343333"/>
<path d="M53.6916 7.48292H50.7315V9.58063H53.4723V10.3535H50.7315V12.4512H53.6916V13.3344H49.8544V6.71008H53.6916V7.48292Z" fill="#343333"/>
<path d="M57.3112 13.3344H56.4341V7.48292H54.5704V6.71008H59.175V7.48292H57.3112V13.3344Z" fill="#343333"/>
<path d="M62.353 13.3344V6.71008H63.2296V13.3344H62.353Z" fill="#343333"/>
<path d="M66.9586 13.3344H66.0815V7.48292H64.2177V6.71008H68.7127V7.48292H66.8489V13.3344H66.9586Z" fill="#343333"/>
<path d="M77.3746 12.4515C76.7168 13.1139 75.9494 13.4451 74.9627 13.4451C73.976 13.4451 73.2085 13.1139 72.5507 12.4515C71.8929 11.789 71.564 11.0162 71.564 10.0225C71.564 9.0289 71.8929 8.25606 72.5507 7.59362C73.2085 6.93119 73.976 6.59998 74.9627 6.59998C75.9494 6.59998 76.7168 6.93119 77.3746 7.59362C78.0324 8.25606 78.3613 9.0289 78.3613 10.0225C78.3613 11.0162 78.0324 11.789 77.3746 12.4515ZM73.2085 11.8994C73.6471 12.3411 74.3049 12.6723 74.9627 12.6723C75.6205 12.6723 76.2783 12.4515 76.7168 11.8994C77.1553 11.4578 77.4842 10.7954 77.4842 10.0225C77.4842 9.24971 77.265 8.58727 76.7168 8.14565C76.2783 7.70403 75.6205 7.37281 74.9627 7.37281C74.3049 7.37281 73.6471 7.59362 73.2085 8.14565C72.77 8.58727 72.4411 9.24971 72.4411 10.0225C72.4411 10.7954 72.6604 11.4578 73.2085 11.8994Z" fill="#343333"/>
<path d="M79.5663 13.3344V6.71008H80.553L83.7324 11.8991V10.5743V6.71008H84.6094V13.3344H83.7324L80.3337 7.92454V9.24941V13.3344H79.5663Z" fill="#343333"/>
<path d="M71.3437 23.0506C68.7125 23.0506 66.6295 25.0379 66.6295 27.7981C66.6295 30.4478 68.7125 32.5455 71.3437 32.5455C73.9749 32.5455 76.0579 30.5582 76.0579 27.7981C76.0579 24.9275 73.9749 23.0506 71.3437 23.0506ZM71.3437 30.5582C69.9185 30.5582 68.7125 29.3437 68.7125 27.6877C68.7125 26.0316 69.9185 24.8171 71.3437 24.8171C72.7689 24.8171 73.9749 25.9212 73.9749 27.6877C73.9749 29.3437 72.7689 30.5582 71.3437 30.5582ZM61.1478 23.0506C58.5166 23.0506 56.4336 25.0379 56.4336 27.7981C56.4336 30.4478 58.5166 32.5455 61.1478 32.5455C63.779 32.5455 65.862 30.5582 65.862 27.7981C65.862 24.9275 63.779 23.0506 61.1478 23.0506ZM61.1478 30.5582C59.7226 30.5582 58.5166 29.3437 58.5166 27.6877C58.5166 26.0316 59.7226 24.8171 61.1478 24.8171C62.573 24.8171 63.779 25.9212 63.779 27.6877C63.779 29.3437 62.573 30.5582 61.1478 30.5582ZM48.9785 24.4859V26.4732H53.6927C53.5831 27.5773 53.1446 28.4605 52.5964 29.0125C51.9386 29.675 50.8422 30.4478 48.9785 30.4478C46.0184 30.4478 43.8257 28.1293 43.8257 25.1483C43.8257 22.1674 46.128 19.8489 48.9785 19.8489C50.5134 19.8489 51.7193 20.5113 52.5964 21.2841L54.0216 19.8489C52.8156 18.7448 51.2808 17.8616 49.0881 17.8616C45.1413 17.8616 41.7427 21.1737 41.7427 25.1483C41.7427 29.1229 45.1413 32.4351 49.0881 32.4351C51.2808 32.4351 52.8157 31.7727 54.1313 30.3374C55.4469 29.0125 55.8854 27.1356 55.8854 25.7004C55.8854 25.2587 55.8854 24.8171 55.7758 24.4859H48.9785ZM98.752 26.0316C98.3135 24.9275 97.2172 23.0506 94.8052 23.0506C92.3933 23.0506 90.4199 24.9275 90.4199 27.7981C90.4199 30.4478 92.3933 32.5455 95.0245 32.5455C97.1075 32.5455 98.4231 31.2206 98.8617 30.4478L97.3268 29.3437C96.7786 30.1166 96.1208 30.6686 95.0245 30.6686C93.9282 30.6686 93.2704 30.227 92.7222 29.2333L98.9713 26.5836L98.752 26.0316ZM92.3933 27.5773C92.3933 25.8108 93.8185 24.8171 94.8052 24.8171C95.5727 24.8171 96.3401 25.2587 96.5594 25.8108L92.3933 27.5773ZM87.2405 32.1039H89.3236V18.3032H87.2405V32.1039ZM83.9515 24.0443C83.4034 23.4923 82.5263 22.9402 81.43 22.9402C79.1277 22.9402 76.935 25.0379 76.935 27.6877C76.935 30.3374 79.018 32.3247 81.43 32.3247C82.5263 32.3247 83.4034 31.7727 83.8419 31.2206H83.9515V31.8831C83.9515 33.6496 82.9648 34.6432 81.43 34.6432C80.224 34.6432 79.3469 33.76 79.1277 32.9871L77.3735 33.76C77.9217 34.9744 79.2373 36.5201 81.5396 36.5201C83.9515 36.5201 85.9249 35.0848 85.9249 31.6623V23.2714H83.9515V24.0443ZM81.5396 30.5582C80.1144 30.5582 78.9084 29.3437 78.9084 27.6877C78.9084 26.0316 80.1144 24.8171 81.5396 24.8171C82.9648 24.8171 84.0612 26.0316 84.0612 27.6877C84.0612 29.3437 82.9648 30.5582 81.5396 30.5582ZM108.29 18.3032H103.357V32.1039H105.44V26.9148H108.29C110.592 26.9148 112.785 25.2587 112.785 22.609C112.785 19.9593 110.592 18.3032 108.29 18.3032ZM108.4 24.9275H105.44V20.1801H108.4C109.935 20.1801 110.812 21.505 110.812 22.4986C110.702 23.7131 109.825 24.9275 108.4 24.9275ZM121.008 22.9402C119.473 22.9402 117.938 23.6027 117.39 25.0379L119.253 25.8108C119.692 25.0379 120.35 24.8171 121.117 24.8171C122.214 24.8171 123.2 25.4795 123.31 26.5836V26.694C122.981 26.4732 122.104 26.142 121.227 26.142C119.253 26.142 117.28 27.246 117.28 29.2333C117.28 31.1102 118.925 32.3247 120.679 32.3247C122.104 32.3247 122.762 31.6623 123.31 30.9998H123.42V32.1039H125.393V26.8044C125.174 24.3755 123.31 22.9402 121.008 22.9402ZM120.788 30.5582C120.131 30.5582 119.144 30.227 119.144 29.3437C119.144 28.2397 120.35 27.9085 121.337 27.9085C122.214 27.9085 122.652 28.1293 123.2 28.3501C122.981 29.675 121.885 30.5582 120.788 30.5582ZM132.3 23.2714L129.998 29.2333H129.888L127.476 23.2714H125.283L128.901 31.6623L126.818 36.2993H128.901L134.493 23.2714H132.3ZM113.881 32.1039H115.964V18.3032H113.881V32.1039Z" fill="#343333"/>
<path d="M8.0847 7.26233C7.7558 7.59355 7.64616 8.14557 7.64616 8.80801V33.2076C7.64616 33.87 7.86543 34.4221 8.19433 34.7533L8.30396 34.8637L21.8985 21.1734V21.063V20.9526L8.0847 7.26233Z" fill="url(#paint0_linear)"/>
<path d="M26.2846 25.8109L21.7896 21.2842V21.0634V20.953L26.2846 16.4264L26.3942 16.5368L31.7663 19.6282C33.3011 20.5114 33.3011 21.9467 31.7663 22.8299L26.2846 25.8109Z" fill="url(#paint1_linear)"/>
<path d="M26.3943 25.7003L21.7897 21.0632L8.08554 34.8639C8.63371 35.4159 9.40114 35.4159 10.3878 34.9743L26.3943 25.7003Z" fill="url(#paint2_linear)"/>
<path d="M26.3943 16.4261L10.3878 7.26247C9.40114 6.71044 8.63371 6.82084 8.08554 7.37287L21.7897 21.0632L26.3943 16.4261Z" fill="url(#paint3_linear)"/>
<path opacity="0.2" d="M26.2847 25.5898L10.3878 34.6431C9.51078 35.1951 8.74334 35.0847 8.19517 34.6431L8.08554 34.7535L8.19517 34.8639C8.74334 35.3055 9.51078 35.4159 10.3878 34.8639L26.2847 25.5898Z" fill="black"/>
<path opacity="0.12" d="M8.08444 34.6433C7.75573 34.3121 7.64616 33.7601 7.64616 33.0977V33.2081C7.64616 33.8705 7.8653 34.4225 8.19401 34.7537V34.6433H8.08444Z" fill="black"/>
<path opacity="0.12" d="M31.7663 22.4985L26.2847 25.5899L26.3943 25.7003L31.7663 22.6089C32.5338 22.1673 32.8627 21.6153 32.8627 21.0632C32.8627 21.6153 32.4241 22.0569 31.7663 22.4985Z" fill="black"/>
<path opacity="0.25" d="M10.387 7.37322L31.7655 19.6282C32.4233 20.0698 32.8618 20.5115 32.8618 21.0635C32.8618 20.5115 32.5329 19.9594 31.7655 19.5178L10.387 7.26281C8.85213 6.37957 7.64616 7.042 7.64616 8.80849V8.91889C7.64616 7.26281 8.85213 6.48997 10.387 7.37322Z" fill="white"/>
<defs>
<linearGradient id="paint0_linear" x1="20.5825" y1="8.59801" x2="2.05423" y2="26.9967" gradientUnits="userSpaceOnUse">
<stop stop-color="#00A0FF"/>
<stop offset="0.00657445" stop-color="#00A1FF"/>
<stop offset="0.2601" stop-color="#00BEFF"/>
<stop offset="0.5122" stop-color="#00D2FF"/>
<stop offset="0.7604" stop-color="#00DFFF"/>
<stop offset="1" stop-color="#00E3FF"/>
</linearGradient>
<linearGradient id="paint1_linear" x1="33.7773" y1="21.0651" x2="7.2494" y2="21.0651" gradientUnits="userSpaceOnUse">
<stop stop-color="#FFE000"/>
<stop offset="0.4087" stop-color="#FFBD00"/>
<stop offset="0.7754" stop-color="#FFA500"/>
<stop offset="1" stop-color="#FF9C00"/>
</linearGradient>
<linearGradient id="paint2_linear" x1="23.9022" y1="23.5984" x2="-1.22354" y2="48.5484" gradientUnits="userSpaceOnUse">
<stop stop-color="#FF3A44"/>
<stop offset="1" stop-color="#C31162"/>
</linearGradient>
<linearGradient id="paint3_linear" x1="4.68384" y1="-0.8233" x2="15.9036" y2="10.3179" gradientUnits="userSpaceOnUse">
<stop stop-color="#32A071"/>
<stop offset="0.0685" stop-color="#2DA771"/>
<stop offset="0.4762" stop-color="#15CF74"/>
<stop offset="0.8009" stop-color="#06E775"/>
<stop offset="1" stop-color="#00F076"/>
</linearGradient>
</defs>
</svg>
