<svg aria-hidden="true" style="position: absolute; width: 0; height: 0; overflow: hidden;" version="1.1" xmlns="http://www.w3.org/2000/svg" xmlns:xlink="http://www.w3.org/1999/xlink">
<defs>
<symbol id="icon-apple" viewBox="0 0 103 32">
<title>apple</title>
<path d="M21.288 15.891c0.009-0.668 0.185-1.322 0.512-1.903s0.795-1.069 1.36-1.418c-0.359-0.516-0.832-0.941-1.383-1.241s-1.163-0.466-1.788-0.486c-1.334-0.141-2.627 0.804-3.307 0.804-0.693 0-1.74-0.79-2.867-0.766-0.729 0.024-1.44 0.237-2.062 0.62s-1.136 0.921-1.491 1.563c-1.536 2.679-0.39 6.616 1.081 8.781 0.736 1.060 1.597 2.245 2.723 2.203 1.102-0.046 1.513-0.708 2.843-0.708 1.318 0 1.704 0.708 2.853 0.681 1.182-0.019 1.927-1.065 2.638-2.135 0.529-0.756 0.936-1.59 1.206-2.474-0.687-0.293-1.273-0.782-1.686-1.408s-0.633-1.36-0.634-2.111z"></path>
<path d="M19.118 9.419c0.645-0.779 0.962-1.781 0.885-2.792-0.985 0.104-1.895 0.578-2.548 1.328-0.319 0.366-0.564 0.792-0.72 1.254s-0.22 0.949-0.189 1.436c0.493 0.005 0.98-0.102 1.425-0.314s0.837-0.523 1.146-0.91z"></path>
<path d="M37.6 21.362h-3.76l-0.903 2.685h-1.593l3.562-9.934h1.655l3.562 9.934h-1.62l-0.902-2.685zM34.229 20.123h2.981l-1.469-4.358h-0.041l-1.47 4.358z"></path>
<path d="M47.814 20.426c0 2.251-1.196 3.697-3.002 3.697-0.457 0.024-0.912-0.082-1.312-0.306s-0.73-0.557-0.951-0.961h-0.034v3.588h-1.476v-9.639h1.429v1.205h0.027c0.231-0.402 0.566-0.733 0.969-0.959s0.86-0.337 1.321-0.322c1.825 0 3.029 1.453 3.029 3.698zM46.296 20.426c0-1.466-0.752-2.43-1.901-2.43-1.128 0-1.887 0.984-1.887 2.43 0 1.459 0.759 2.437 1.887 2.437 1.148 0 1.901-0.957 1.901-2.437z"></path>
<path d="M55.73 20.426c0 2.251-1.196 3.697-3.002 3.697-0.457 0.024-0.912-0.082-1.312-0.306s-0.73-0.557-0.951-0.961h-0.034v3.588h-1.476v-9.639h1.429v1.205h0.027c0.231-0.402 0.566-0.733 0.969-0.959s0.86-0.337 1.321-0.322c1.825 0 3.029 1.453 3.029 3.698zM54.212 20.426c0-1.466-0.752-2.43-1.901-2.43-1.128 0-1.887 0.984-1.887 2.43 0 1.459 0.759 2.437 1.887 2.437 1.148 0 1.901-0.957 1.901-2.437h-0z"></path>
<path d="M60.962 21.279c0.109 0.985 1.060 1.632 2.358 1.632 1.244 0 2.14-0.647 2.14-1.535 0-0.771-0.54-1.233-1.818-1.549l-1.278-0.31c-1.812-0.441-2.652-1.294-2.652-2.678 0-1.714 1.483-2.891 3.59-2.891 2.084 0 3.514 1.177 3.562 2.891h-1.49c-0.089-0.991-0.903-1.59-2.092-1.59s-2.003 0.605-2.003 1.487c0 0.702 0.52 1.116 1.791 1.432l1.087 0.269c2.024 0.482 2.865 1.301 2.865 2.754 0 1.859-1.47 3.023-3.808 3.023-2.188 0-3.665-1.137-3.76-2.934l1.511 0z"></path>
<path d="M70.205 15.090v1.714h1.368v1.177h-1.368v3.993c0 0.62 0.274 0.909 0.875 0.909 0.162-0.003 0.325-0.014 0.486-0.034v1.17c-0.27 0.051-0.545 0.074-0.82 0.069-1.456 0-2.024-0.551-2.024-1.956v-4.152h-1.046v-1.177h1.046v-1.714h1.483z"></path>
<path d="M72.365 20.426c0-2.279 1.333-3.711 3.411-3.711 2.086 0 3.412 1.432 3.412 3.711 0 2.285-1.32 3.711-3.412 3.711s-3.411-1.426-3.411-3.711zM77.684 20.426c0-1.563-0.711-2.486-1.908-2.486s-1.907 0.93-1.907 2.486c0 1.57 0.711 2.485 1.907 2.485s1.908-0.916 1.908-2.485v0z"></path>
<path d="M80.405 16.805h1.408v1.233h0.034c0.095-0.385 0.319-0.725 0.634-0.964s0.703-0.36 1.096-0.345c0.17-0.001 0.34 0.018 0.506 0.055v1.391c-0.215-0.066-0.439-0.096-0.664-0.090-0.214-0.009-0.428 0.029-0.626 0.112s-0.377 0.207-0.524 0.365c-0.146 0.158-0.256 0.347-0.324 0.552s-0.089 0.423-0.065 0.638v4.296h-1.476v-7.243z"></path>
<path d="M90.89 21.92c-0.199 1.315-1.471 2.217-3.097 2.217-2.092 0-3.391-1.412-3.391-3.677 0-2.272 1.305-3.745 3.329-3.745 1.99 0 3.241 1.377 3.241 3.573v0.509h-5.080v0.090c-0.023 0.267 0.009 0.535 0.097 0.788s0.227 0.484 0.41 0.678 0.405 0.347 0.651 0.448c0.246 0.101 0.511 0.148 0.776 0.138 0.349 0.033 0.7-0.049 0.999-0.232s0.532-0.459 0.663-0.787h1.402zM85.9 19.758h3.596c0.013-0.24-0.023-0.48-0.106-0.704s-0.212-0.43-0.377-0.603c-0.165-0.173-0.364-0.309-0.585-0.4s-0.457-0.136-0.696-0.131c-0.24-0.001-0.479 0.045-0.701 0.137s-0.425 0.227-0.595 0.398c-0.17 0.171-0.305 0.374-0.397 0.598s-0.139 0.464-0.138 0.706v0z"></path>
<path d="M34.044 6.635c0.31-0.022 0.62 0.025 0.909 0.138s0.55 0.29 0.763 0.516c0.213 0.227 0.374 0.499 0.47 0.796s0.126 0.612 0.087 0.922c0 1.525-0.818 2.402-2.23 2.402h-1.712v-4.774h1.712zM33.068 10.734h0.894c0.221 0.013 0.442-0.023 0.648-0.107s0.39-0.213 0.539-0.377 0.261-0.36 0.326-0.574c0.065-0.213 0.082-0.438 0.050-0.659 0.030-0.22 0.011-0.444-0.055-0.655s-0.178-0.406-0.327-0.569-0.333-0.291-0.537-0.374c-0.204-0.083-0.424-0.12-0.644-0.108h-0.894v3.424z"></path>
<path d="M37.106 9.606c-0.022-0.237 0.004-0.476 0.079-0.701s0.195-0.433 0.354-0.609c0.159-0.176 0.352-0.317 0.568-0.413s0.45-0.146 0.686-0.146 0.47 0.050 0.686 0.146c0.216 0.096 0.41 0.237 0.568 0.413s0.279 0.383 0.354 0.609 0.101 0.464 0.079 0.701c0.023 0.237-0.004 0.476-0.078 0.702s-0.195 0.434-0.354 0.61c-0.159 0.176-0.353 0.317-0.569 0.414s-0.45 0.146-0.686 0.146c-0.236 0-0.47-0.050-0.686-0.146s-0.41-0.237-0.569-0.414c-0.159-0.176-0.279-0.384-0.354-0.61s-0.101-0.465-0.078-0.702zM39.754 9.606c0-0.781-0.348-1.238-0.96-1.238-0.614 0-0.959 0.457-0.959 1.238 0 0.787 0.345 1.24 0.959 1.24 0.611 0 0.96-0.456 0.96-1.24v0z"></path>
<path d="M44.965 11.409h-0.732l-0.739-2.653h-0.056l-0.736 2.653h-0.725l-0.986-3.602h0.716l0.641 2.749h0.053l0.736-2.749h0.677l0.736 2.749h0.056l0.638-2.749h0.706l-0.982 3.602z"></path>
<path d="M46.776 7.806h0.68v0.572h0.053c0.089-0.206 0.24-0.378 0.432-0.493s0.414-0.167 0.636-0.149c0.174-0.013 0.349 0.013 0.511 0.077s0.309 0.164 0.428 0.293c0.119 0.129 0.208 0.283 0.259 0.451s0.065 0.345 0.040 0.519v2.332h-0.706v-2.153c0-0.579-0.25-0.867-0.772-0.867-0.118-0.006-0.236 0.015-0.346 0.059s-0.208 0.113-0.29 0.199c-0.081 0.087-0.143 0.19-0.18 0.303s-0.051 0.233-0.038 0.351v2.107h-0.706v-3.602z"></path>
<path d="M50.939 6.4h0.706v5.009h-0.706v-5.009z"></path>
<path d="M52.626 9.606c-0.022-0.237 0.004-0.476 0.079-0.701s0.195-0.433 0.354-0.609 0.352-0.317 0.568-0.413c0.216-0.096 0.45-0.146 0.686-0.146s0.47 0.050 0.686 0.146c0.216 0.096 0.41 0.237 0.568 0.413s0.279 0.383 0.354 0.609c0.075 0.226 0.102 0.464 0.079 0.701 0.023 0.237-0.004 0.476-0.078 0.702s-0.195 0.434-0.354 0.61c-0.159 0.176-0.353 0.317-0.569 0.414s-0.45 0.146-0.686 0.146-0.47-0.050-0.686-0.146c-0.216-0.096-0.41-0.237-0.569-0.414s-0.279-0.384-0.354-0.61c-0.074-0.226-0.101-0.465-0.078-0.702zM55.274 9.606c0-0.781-0.348-1.237-0.96-1.237-0.614 0-0.959 0.457-0.959 1.238 0 0.787 0.345 1.24 0.959 1.24 0.611 0 0.96-0.456 0.96-1.24v0z"></path>
<path d="M56.744 10.39c0-0.648 0.48-1.022 1.33-1.075l0.969-0.056v-0.311c0-0.38-0.25-0.595-0.732-0.595-0.394 0-0.667 0.146-0.746 0.4h-0.684c0.072-0.619 0.65-1.016 1.462-1.016 0.897 0 1.403 0.45 1.403 1.211v2.461h-0.68v-0.506h-0.056c-0.113 0.182-0.273 0.33-0.461 0.429s-0.4 0.146-0.613 0.137c-0.15 0.016-0.302-0-0.446-0.047s-0.276-0.124-0.388-0.225c-0.112-0.102-0.202-0.226-0.264-0.364s-0.094-0.289-0.095-0.441zM59.043 10.082v-0.301l-0.874 0.056c-0.493 0.033-0.716 0.202-0.716 0.52 0 0.324 0.279 0.513 0.663 0.513 0.113 0.011 0.226 0 0.334-0.034s0.208-0.089 0.295-0.162c0.086-0.074 0.157-0.164 0.208-0.265s0.081-0.213 0.089-0.326z"></path>
<path d="M60.674 9.606c0-1.138 0.581-1.859 1.485-1.859 0.224-0.010 0.445 0.044 0.64 0.155s0.353 0.277 0.457 0.477h0.053v-1.979h0.706v5.009h-0.676v-0.569h-0.056c-0.112 0.198-0.277 0.361-0.475 0.472s-0.422 0.165-0.649 0.156c-0.91 0-1.485-0.721-1.485-1.862zM61.403 9.606c0 0.764 0.358 1.224 0.956 1.224 0.595 0 0.963-0.466 0.963-1.221 0-0.751-0.372-1.224-0.963-1.224-0.594 0-0.956 0.463-0.956 1.221v0z"></path>
<path d="M66.935 9.606c-0.022-0.237 0.004-0.476 0.079-0.701s0.195-0.433 0.354-0.609c0.159-0.176 0.352-0.317 0.568-0.413s0.45-0.146 0.686-0.146 0.47 0.050 0.686 0.146c0.216 0.096 0.41 0.237 0.568 0.413s0.279 0.383 0.354 0.609 0.101 0.464 0.079 0.701c0.023 0.237-0.004 0.476-0.078 0.702s-0.195 0.434-0.354 0.61c-0.159 0.176-0.353 0.317-0.569 0.414s-0.45 0.146-0.686 0.146-0.47-0.050-0.686-0.146c-0.216-0.096-0.41-0.237-0.569-0.414s-0.279-0.384-0.354-0.61c-0.074-0.226-0.101-0.465-0.078-0.702zM69.583 9.606c0-0.781-0.348-1.238-0.96-1.238-0.614 0-0.959 0.457-0.959 1.238 0 0.787 0.345 1.24 0.959 1.24 0.611 0 0.96-0.456 0.96-1.24z"></path>
<path d="M71.256 7.806h0.68v0.572h0.053c0.090-0.206 0.24-0.378 0.432-0.493s0.414-0.167 0.635-0.149c0.175-0.013 0.349 0.013 0.511 0.077s0.309 0.164 0.428 0.293c0.119 0.129 0.208 0.283 0.26 0.451s0.065 0.345 0.040 0.519v2.332h-0.706v-2.153c0-0.579-0.249-0.867-0.772-0.867-0.118-0.006-0.236 0.015-0.346 0.059s-0.208 0.113-0.29 0.199c-0.081 0.087-0.143 0.19-0.18 0.303s-0.051 0.233-0.038 0.351v2.107h-0.706v-3.602z"></path>
<path d="M78.284 6.909v0.913h0.775v0.599h-0.775v1.852c0 0.377 0.154 0.543 0.505 0.543 0.090-0 0.18-0.006 0.269-0.016v0.592c-0.127 0.023-0.255 0.035-0.384 0.036-0.785 0-1.097-0.278-1.097-0.973v-2.034h-0.568v-0.599h0.568v-0.913h0.707z"></path>
<path d="M80.023 6.4h0.7v1.985h0.055c0.094-0.207 0.249-0.381 0.444-0.496s0.421-0.168 0.647-0.149c0.173-0.009 0.346 0.020 0.507 0.085s0.305 0.166 0.423 0.294c0.118 0.128 0.206 0.281 0.258 0.448s0.068 0.343 0.044 0.516v2.326h-0.707v-2.15c0-0.575-0.266-0.867-0.764-0.867-0.121-0.010-0.244 0.007-0.358 0.049s-0.218 0.11-0.304 0.197c-0.086 0.087-0.151 0.192-0.193 0.307s-0.057 0.238-0.047 0.36v2.104h-0.706v-5.009z"></path>
<path d="M87.217 10.436c-0.096 0.329-0.304 0.614-0.587 0.805s-0.625 0.275-0.963 0.238c-0.236 0.006-0.47-0.039-0.687-0.133s-0.41-0.234-0.567-0.411c-0.157-0.177-0.274-0.386-0.343-0.613s-0.088-0.466-0.055-0.702c-0.032-0.236-0.012-0.476 0.056-0.704s0.185-0.438 0.342-0.616 0.349-0.321 0.565-0.418c0.216-0.097 0.449-0.146 0.686-0.144 0.996 0 1.596 0.685 1.596 1.816v0.248h-2.527v0.040c-0.011 0.132 0.006 0.265 0.049 0.391s0.111 0.24 0.201 0.338c0.089 0.097 0.199 0.174 0.319 0.227s0.252 0.079 0.383 0.077c0.169 0.020 0.34-0.010 0.492-0.088s0.277-0.199 0.359-0.349h0.68zM84.734 9.275h1.807c0.009-0.121-0.007-0.242-0.048-0.357s-0.104-0.219-0.187-0.306c-0.084-0.088-0.183-0.157-0.295-0.204s-0.231-0.069-0.351-0.066c-0.122-0.002-0.243 0.022-0.356 0.068s-0.216 0.115-0.302 0.202c-0.087 0.087-0.155 0.19-0.201 0.304s-0.069 0.236-0.068 0.359v0z"></path>
</symbol>
<symbol id="icon-apple-icon" viewBox="0 0 26 32">
<title>apple-icon</title>
<path fill="#fff" style="fill: var(--color1, #fff)" d="M17.328 4.869l-0.002 0.003-0.002 0.003c-0.522 0.65-1.185 1.172-1.939 1.528-0.63 0.298-1.31 0.473-2.004 0.517 0-0.687 0.113-1.371 0.335-2.023 0.266-0.782 0.684-1.504 1.229-2.125l0-0c1.020-1.162 2.404-1.935 3.918-2.198 0.012 1.563-0.529 3.086-1.536 4.294zM13.312 4.76c-0.284 0.835-0.401 1.718-0.344 2.599 0.898 0.009 1.787-0.185 2.598-0.569s1.526-0.947 2.089-1.647c1.084-1.301 1.66-2.944 1.634-4.627-0.002-0.142-0.009-0.284-0.020-0.427-0.142 0.015-0.283 0.034-0.424 0.057-1.631 0.27-3.125 1.097-4.221 2.346-0.582 0.663-1.028 1.434-1.313 2.269zM19.2 8.144l0.016 0.002 0.016 0c1.074 0.034 2.125 0.317 3.070 0.828 0.816 0.441 1.533 1.041 2.11 1.763-0.917 0.645-1.682 1.486-2.237 2.464-0.632 1.114-0.972 2.369-0.989 3.65l0.427 0.006-0.427 0c0.002 1.443 0.428 2.854 1.226 4.057 0.726 1.094 1.73 1.971 2.906 2.544-0.477 1.424-1.159 2.772-2.025 4.001l-0.003 0.004-0.003 0.004c-0.65 0.973-1.289 1.89-2.018 2.571-0.721 0.673-1.503 1.089-2.443 1.104l-0.003 0c-0.932 0.021-1.551-0.242-2.276-0.551l-0.032-0.013c-0.75-0.319-1.592-0.668-2.883-0.668-1.296 0-2.151 0.324-2.912 0.642-0.052 0.022-0.104 0.043-0.155 0.065-0.686 0.288-1.282 0.539-2.133 0.574-0.862 0.032-1.661-0.399-2.439-1.13s-1.483-1.71-2.157-2.673c-1.307-1.91-2.476-4.613-2.973-7.429-0.497-2.82-0.312-5.701 1.020-8.008l0.002-0.003 0.002-0.003c0.611-1.097 1.495-2.018 2.568-2.672s2.294-1.018 3.548-1.059c0.933-0.019 1.852 0.297 2.742 0.648 0.113 0.045 0.226 0.090 0.339 0.135l0 0c0.32 0.129 0.638 0.256 0.934 0.358 0.401 0.138 0.811 0.246 1.199 0.246 0.391 0 0.832-0.132 1.268-0.289 0.239-0.086 0.511-0.194 0.791-0.305 0.219-0.087 0.443-0.175 0.659-0.257 1.039-0.392 2.156-0.723 3.266-0.607zM22.767 20.677c-0.752-1.133-1.153-2.462-1.155-3.821 0.016-1.209 0.337-2.394 0.933-3.445 0.526-0.927 1.252-1.724 2.122-2.333 0.116-0.082 0.235-0.16 0.357-0.234-0.082-0.117-0.167-0.232-0.256-0.344-0.617-0.78-1.387-1.428-2.265-1.902-1.003-0.542-2.119-0.843-3.259-0.879-1.488-0.156-2.947 0.423-4.14 0.897-0.757 0.301-1.407 0.558-1.888 0.558-0.547 0-1.216-0.268-1.965-0.569-0.979-0.393-2.097-0.842-3.261-0.818-1.329 0.043-2.624 0.429-3.759 1.122s-2.072 1.667-2.718 2.828c-2.801 4.849-0.712 11.974 1.971 15.893 1.342 1.919 2.911 4.063 4.964 3.987 0.931-0.039 1.592-0.317 2.274-0.604 0.79-0.332 1.609-0.677 2.909-0.677 1.226 0 2.010 0.334 2.762 0.654 0.721 0.307 1.413 0.602 2.438 0.578 2.155-0.035 3.513-1.928 4.809-3.865 0.964-1.367 1.707-2.879 2.199-4.478-1.252-0.53-2.321-1.416-3.073-2.549z"></path>
</symbol>
<symbol id="icon-google" viewBox="0 0 103 32">
<title>google</title>
<path fill="#343333" style="fill: var(--color2, #343333)" d="M35.382 7.45c0 0.642-0.159 1.204-0.558 1.606-0.478 0.482-1.036 0.723-1.754 0.723s-1.276-0.241-1.754-0.723c-0.478-0.482-0.718-1.044-0.718-1.767s0.239-1.285 0.718-1.766 1.037-0.723 1.754-0.723c0.319 0 0.638 0.080 0.957 0.241s0.558 0.321 0.718 0.562l-0.399 0.401c-0.319-0.401-0.718-0.562-1.276-0.562-0.478 0-0.957 0.161-1.276 0.562-0.399 0.321-0.558 0.803-0.558 1.365s0.16 1.044 0.558 1.365c0.399 0.321 0.797 0.562 1.276 0.562 0.558 0 0.957-0.161 1.355-0.562 0.239-0.241 0.399-0.562 0.399-0.963h-1.754v-0.642h2.312c0 0.080 0 0.241 0 0.321z"></path>
<path fill="#343333" style="fill: var(--color2, #343333)" d="M39.048 5.442h-2.153v1.526h1.993v0.562h-1.993v1.526h2.153v0.642h-2.791v-4.818h2.791v0.562z"></path>
<path fill="#343333" style="fill: var(--color2, #343333)" d="M41.681 9.698h-0.638v-4.256h-1.355v-0.562h3.349v0.562h-1.355v4.256z"></path>
<path fill="#343333" style="fill: var(--color2, #343333)" d="M45.348 9.698v-4.818h0.638v4.818h-0.638z"></path>
<path fill="#343333" style="fill: var(--color2, #343333)" d="M48.697 9.698h-0.638v-4.256h-1.355v-0.562h3.269v0.562h-1.355v4.256h0.080z"></path>
<path fill="#343333" style="fill: var(--color2, #343333)" d="M56.272 9.056c-0.478 0.482-1.036 0.723-1.754 0.723s-1.276-0.241-1.754-0.723c-0.478-0.482-0.718-1.044-0.718-1.767s0.239-1.285 0.718-1.766 1.037-0.723 1.754-0.723c0.718 0 1.276 0.241 1.754 0.723s0.718 1.044 0.718 1.766c0 0.723-0.239 1.285-0.718 1.767zM53.243 8.654c0.319 0.321 0.797 0.562 1.276 0.562s0.957-0.161 1.276-0.562c0.319-0.321 0.558-0.803 0.558-1.365s-0.159-1.044-0.558-1.365c-0.319-0.321-0.797-0.562-1.276-0.562s-0.957 0.161-1.276 0.562c-0.319 0.321-0.558 0.803-0.558 1.365s0.16 1.044 0.558 1.365z"></path>
<path fill="#343333" style="fill: var(--color2, #343333)" d="M57.866 9.698v-4.818h0.718l2.312 3.774v-3.774h0.638v4.818h-0.638l-2.472-3.934v3.934h-0.558z"></path>
<path fill="#343333" style="fill: var(--color2, #343333)" d="M51.886 16.764c-1.914 0-3.428 1.445-3.428 3.453 0 1.927 1.515 3.453 3.428 3.453s3.428-1.445 3.428-3.453c0-2.088-1.515-3.453-3.428-3.453zM51.886 22.224c-1.036 0-1.914-0.883-1.914-2.088s0.877-2.088 1.914-2.088 1.914 0.803 1.914 2.088c0 1.204-0.877 2.088-1.914 2.088zM44.471 16.764c-1.914 0-3.428 1.445-3.428 3.453 0 1.927 1.515 3.453 3.428 3.453s3.428-1.445 3.428-3.453c0-2.088-1.515-3.453-3.428-3.453zM44.471 22.224c-1.036 0-1.914-0.883-1.914-2.088s0.877-2.088 1.914-2.088 1.914 0.803 1.914 2.088c0 1.204-0.877 2.088-1.914 2.088zM35.621 17.808v1.445h3.428c-0.080 0.803-0.399 1.445-0.797 1.847-0.478 0.482-1.276 1.044-2.631 1.044-2.153 0-3.747-1.686-3.747-3.854s1.674-3.854 3.747-3.854c1.116 0 1.993 0.482 2.631 1.044l1.036-1.044c-0.877-0.803-1.993-1.445-3.588-1.445-2.87 0-5.342 2.409-5.342 5.299s2.472 5.3 5.342 5.3c1.595 0 2.711-0.482 3.668-1.526 0.957-0.964 1.276-2.329 1.276-3.372 0-0.321 0-0.642-0.080-0.883h-4.944zM71.82 18.932c-0.319-0.803-1.116-2.168-2.87-2.168s-3.189 1.365-3.189 3.453c0 1.927 1.435 3.453 3.349 3.453 1.515 0 2.472-0.964 2.791-1.526l-1.116-0.803c-0.399 0.562-0.877 0.964-1.674 0.964s-1.276-0.321-1.674-1.044l4.545-1.927-0.159-0.401zM67.195 20.056c0-1.285 1.037-2.007 1.754-2.007 0.558 0 1.116 0.321 1.276 0.723l-3.030 1.285zM63.448 23.348h1.515v-10.037h-1.515v10.037zM61.056 17.487c-0.399-0.401-1.036-0.803-1.834-0.803-1.674 0-3.269 1.526-3.269 3.453s1.515 3.372 3.269 3.372c0.797 0 1.435-0.401 1.754-0.803h0.080v0.482c0 1.285-0.718 2.007-1.834 2.007-0.877 0-1.515-0.642-1.674-1.204l-1.276 0.562c0.399 0.883 1.355 2.007 3.030 2.007 1.754 0 3.189-1.044 3.189-3.533v-6.102h-1.435v0.562zM59.302 22.224c-1.036 0-1.914-0.883-1.914-2.088s0.877-2.088 1.914-2.088 1.834 0.883 1.834 2.088c0 1.204-0.797 2.088-1.834 2.088zM78.756 13.311h-3.588v10.037h1.515v-3.774h2.073c1.674 0 3.269-1.204 3.269-3.131s-1.595-3.131-3.269-3.131zM78.836 18.129h-2.153v-3.453h2.153c1.116 0 1.754 0.964 1.754 1.686-0.080 0.883-0.718 1.766-1.754 1.766zM88.006 16.684c-1.116 0-2.233 0.482-2.631 1.526l1.355 0.562c0.319-0.562 0.798-0.723 1.356-0.723 0.798 0 1.515 0.482 1.595 1.285v0.080c-0.239-0.161-0.877-0.401-1.515-0.401-1.436 0-2.871 0.803-2.871 2.248 0 1.365 1.196 2.248 2.472 2.248 1.036 0 1.515-0.482 1.913-0.964h0.080v0.803h1.435v-3.854c-0.159-1.766-1.515-2.81-3.189-2.81zM87.846 22.224c-0.478 0-1.196-0.241-1.196-0.883 0-0.803 0.877-1.044 1.595-1.044 0.638 0 0.956 0.161 1.355 0.321-0.159 0.964-0.956 1.606-1.754 1.606zM96.218 16.925l-1.674 4.336h-0.080l-1.754-4.336h-1.595l2.631 6.102-1.515 3.372h1.515l4.067-9.475h-1.595zM82.823 23.348h1.515v-10.037h-1.515v10.037z"></path>
<path fill="#000" style="fill: var(--color3, #000)" d="M5.88 5.282c-0.239 0.241-0.319 0.642-0.319 1.124v17.745c0 0.482 0.159 0.883 0.399 1.124l0.080 0.080 9.887-9.957v-0.161l-10.046-9.957z"></path>
<path fill="#000" style="fill: var(--color3, #000)" d="M19.116 18.772l-3.269-3.292v-0.241l3.269-3.292 0.080 0.080 3.907 2.248c1.116 0.642 1.116 1.686 0 2.329l-3.987 2.168z"></path>
<path fill="#000" style="fill: var(--color3, #000)" d="M19.196 18.691l-3.349-3.372-9.967 10.037c0.399 0.401 0.957 0.401 1.674 0.080l11.641-6.745z"></path>
<path fill="#000" style="fill: var(--color3, #000)" d="M19.196 11.946l-11.641-6.664c-0.718-0.401-1.276-0.321-1.674 0.080l9.967 9.957 3.349-3.372z"></path>
<path fill="#000" style="fill: var(--color3, #000)" opacity="0.2" d="M19.116 18.611l-11.561 6.584c-0.638 0.401-1.196 0.321-1.595 0l-0.080 0.080 0.080 0.080c0.399 0.321 0.957 0.401 1.595 0l11.561-6.745z"></path>
<path fill="#000" style="fill: var(--color3, #000)" opacity="0.12" d="M5.88 25.195c-0.239-0.241-0.319-0.642-0.319-1.124v0.080c0 0.482 0.159 0.883 0.398 1.124v-0.080h-0.080z"></path>
<path fill="#000" style="fill: var(--color3, #000)" opacity="0.12" d="M23.103 16.363l-3.987 2.248 0.080 0.080 3.907-2.248c0.558-0.321 0.797-0.723 0.797-1.124 0 0.402-0.319 0.723-0.797 1.044z"></path>
<path fill="#fff" style="fill: var(--color1, #fff)" opacity="0.25" d="M7.554 5.362l15.548 8.913c0.478 0.321 0.797 0.642 0.797 1.044 0-0.401-0.239-0.803-0.797-1.124l-15.548-8.913c-1.116-0.642-1.993-0.161-1.993 1.124v0.080c0-1.204 0.877-1.766 1.993-1.124z"></path>
</symbol>
<symbol id="icon-logo" viewBox="0 0 247 32">
<title>logo</title>
<path fill="#fff" style="fill: var(--color1, #fff)" d="M59.723 7.244v2.014h-9.655v5.71h8.909v2.014h-8.909v5.862h9.805v2.014h-11.898v-17.608l11.748-0.007z"></path>
<path fill="#fff" style="fill: var(--color1, #fff)" d="M87.712 7.244v11.166c0 5.029-3.412 6.739-7.268 6.739-3.885 0-7.289-1.71-7.289-6.739v-11.166h2.093v11.072c0 3.572 2.193 4.833 5.204 4.833 2.989 0 5.175-1.261 5.175-4.833v-11.072h2.086z"></path>
<path fill="#fff" style="fill: var(--color1, #fff)" d="M107.996 7.244c4.028 0 7.389 1.283 7.389 5.688s-3.361 5.688-7.389 5.688h-3.856v6.239h-2.093v-17.608h5.949v-0.007zM108.090 9.258h-3.956v7.347h3.956c2.838 0 5.175-0.703 5.175-3.674 0.007-2.993-2.308-3.674-5.175-3.674z"></path>
<path fill="#fff" style="fill: var(--color1, #fff)" d="M142.952 7.244v17.608h-2.085v-7.826h-10.328v7.826h-2.093v-17.608h2.093v7.775h10.328v-7.775h2.085z"></path>
<path fill="#fff" style="fill: var(--color1, #fff)" d="M165.422 6.94c6.1 0 9.11 4.55 9.11 9.108 0 4.55-3.011 9.108-9.11 9.108s-9.109-4.55-9.109-9.108c0.007-4.55 3.018-9.108 9.109-9.108zM165.422 8.954c-4.73 0-6.995 3.471-6.995 7.094s2.265 7.094 6.995 7.094c4.731 0 6.996-3.471 6.996-7.094s-2.265-7.094-6.996-7.094z"></path>
<path fill="#fff" style="fill: var(--color1, #fff)" d="M187.893 24.852v-17.608h6.816c3.132 0 6.523 1.312 6.523 5.333 0 3.246-2.194 4.703-4.652 5.159l5.9 7.116h-2.616l-5.699-6.942h-4.179v6.942h-2.092zM189.986 15.896h4.831c2.092 0 4.308-0.703 4.308-3.319 0-2.645-2.215-3.319-4.308-3.319h-4.831v6.637z"></path>
<path fill="#fff" style="fill: var(--color1, #fff)" d="M217.229 7.244v17.608h-2.092v-17.608h2.092z"></path>
<path fill="#fff" style="fill: var(--color1, #fff)" d="M229.644 24.852l7.591-17.608h2.315l7.562 17.608h-2.236l-1.792-4.253h-9.382l-1.792 4.253h-2.265zM234.525 18.642h7.74l-3.605-8.55c-0.1-0.225-0.172-0.428-0.272-0.681-0.1 0.254-0.172 0.449-0.273 0.681l-3.59 8.55z"></path>
<path fill="#fff" style="fill: var(--color1, #fff)" d="M33.493 5.898l-0.022-0.642-0.641 0.022c-1.278 0.048-2.541 0.207-3.76 0.472 0.438-1.726 0.637-3.442 0.586-5.113l-0.022-0.638-0.645 0.022c-4.018 0.144-7.325 1.509-9.568 3.947-1.245 1.354-2.136 3.006-2.67 4.936-0.534-1.933-1.425-3.582-2.67-4.936-2.243-2.438-5.55-3.803-9.568-3.947l-0.641-0.022-0.018 0.642c-0.052 1.671 0.147 3.386 0.586 5.113-1.223-0.266-2.482-0.424-3.76-0.472l-0.641-0.022-0.022 0.642c-0.254 7.149 2.983 10.756 6.416 14.578 1.635 1.822 3.329 3.711 4.795 6.105 1.024 1.671 1.481 3.231 1.315 4.508l-0.118 0.907 0.891-0.199c1.481-0.332 2.633-1.129 3.44-2.364 0.807 1.239 1.959 2.032 3.44 2.364l0.891 0.199-0.118-0.907c-0.166-1.276 0.291-2.837 1.315-4.508 1.466-2.394 3.16-4.283 4.795-6.105 3.433-3.825 6.67-7.437 6.416-14.582zM20.363 4.84c1.646-1.789 3.731-2.708 5.69-3.154 0.262 1.704 0.015 3.46-0.523 5.179-4.018 1.675-6.677 4.275-8.073 5.935 0.136-3.335 1.112-6.009 2.906-7.96zM16.205 15.165l0.549 0.893 0.549-0.893 0.070-0.111c0.029-0.048 2.508-3.995 7.535-6.489-0.773 1.837-1.812 3.593-2.84 5.15-1.528 2.32-5.311 6.762-5.315 10.908 0-4.146-3.783-8.587-5.315-10.908-1.028-1.557-2.066-3.313-2.84-5.15 5.027 2.494 7.506 6.441 7.535 6.489l0.070 0.111zM7.45 1.686c1.959 0.446 4.048 1.365 5.69 3.154 1.794 1.951 2.77 4.626 2.91 7.964-1.4-1.664-4.055-4.261-8.077-5.935-0.541-1.723-0.784-3.478-0.523-5.183zM15.744 28.636c-0.479 0.771-1.101 1.321-1.897 1.653v-0.007c1.481-2.11-0.582-5.445-2.762-8.318-1.886-2.486-3.915-4.862-5.513-7.558-1.3-2.195-1.963-4.393-0.718-7.237 1.481 4.478 4.305 8.366 6.806 11.8 2.976 4.087 5.326 7.319 4.084 9.668zM27.935 14.405c-1.599 2.696-3.628 5.072-5.514 7.558-2.184 2.874-4.247 6.212-2.762 8.318v0.007c-0.796-0.336-1.418-0.882-1.897-1.653-1.241-2.346 1.109-5.577 4.085-9.668 2.501-3.438 5.329-7.322 6.806-11.8 1.245 2.844 0.582 5.043-0.718 7.237z"></path>
</symbol>
<symbol id="icon-play-icon" viewBox="0 0 29 32">
<title>play-icon</title>
<path fill="#fff" style="fill: var(--color1, #fff)" d="M6.482 30.708l16.127-9.245-5.474-5.246-14.967 14.264c1.194 0.86 2.855 1.063 4.314 0.227zM1.783 30.167l14.995-14.291-14.935-14.313c-0.788 0.702-1.304 1.722-1.304 2.92v22.819c0 1.167 0.49 2.165 1.244 2.865zM17.136 15.535l5.472-5.215-16.126-9.244c-1.432-0.821-3.058-0.64-4.247 0.179l14.9 14.28zM17.492 15.877l5.563 5.331 3.33-1.909c2.641-1.514 2.641-5.299 0-6.814l-3.331-1.91-5.562 5.301zM23.192 10.086l3.442 1.973c2.971 1.703 2.971 5.962 0 7.665l-3.443 1.974-0.162 0.167-0.048-0.046-16.25 9.315c-2.971 1.703-6.686-0.426-6.686-3.833v-22.819c0-3.407 3.714-5.536 6.686-3.833l16.25 9.315 0.049-0.047 0.163 0.168z"></path>
</symbol>
</defs>
</svg>
